HIERARCHY
ROOT hip
{
	OFFSET 0.000000 0.000000 0.000000
	CHANNELS 6 Xposition Yposition Zposition Xrotation Zrotation Yrotation 
	JOINT abdomen
	{
		OFFSET 0.000000 3.422050 0.000000
		CHANNELS 3 Xrotation Zrotation Yrotation 
		JOINT chest
		{
			OFFSET 0.000000 8.486693 -0.684411
			CHANNELS 3 Xrotation Zrotation Yrotation 
			JOINT neck
			{
				OFFSET 0.000000 10.266162 -0.273764
				CHANNELS 3 Xrotation Zrotation Yrotation 
				JOINT head
				{
					OFFSET 0.000000 3.148285 0.000000
					CHANNELS 3 Xrotation Zrotation Yrotation 
					End Site
					{
						OFFSET 0.000000 3.148289 0.000000
					}
				}
			}
			JOINT lCollar
			{
				OFFSET 3.422053 6.707223 -0.821293
				CHANNELS 3 Yrotation Zrotation Xrotation 
				JOINT lShldr
				{
					OFFSET 3.285171 0.000000 0.000000
					CHANNELS 3 Zrotation Yrotation Xrotation 
					JOINT lForeArm
					{
						OFFSET 10.129278 0.000000 0.000000
						CHANNELS 3 Yrotation Zrotation Xrotation 
						JOINT lHand
						{
							OFFSET 8.486692 0.000000 0.000000
							CHANNELS 3 Zrotation Yrotation Xrotation 
							End Site
							{
								OFFSET 4.106464 0.000000 0.000000
							}
						}
					}
				}
			}
			JOINT rCollar
			{
				OFFSET -3.558935 6.707223 -0.821293
				CHANNELS 3 Yrotation Zrotation Xrotation 
				JOINT rShldr
				{
					OFFSET -3.148289 0.000000 0.000000
					CHANNELS 3 Zrotation Yrotation Xrotation 
					JOINT rForeArm
					{
						OFFSET -10.266159 0.000000 0.000000
						CHANNELS 3 Yrotation Zrotation Xrotation 
						JOINT rHand
						{
							OFFSET -8.349810 0.000000 0.000000
							CHANNELS 3 Zrotation Yrotation Xrotation 
							End Site
							{
								OFFSET -4.106464 0.000000 0.000000
							}
						}
					}
				}
			}
		}
	}
	JOINT lThigh
	{
		OFFSET 5.338403 -1.642589 1.368821
		CHANNELS 3 Xrotation Zrotation Yrotation 
		JOINT lShin
		{
			OFFSET -2.053232 -20.121670 0.000000
			CHANNELS 3 Xrotation Zrotation Yrotation 
			JOINT lFoot
			{
				OFFSET 0.000000 -19.300380 -1.231939
				CHANNELS 3 Xrotation Yrotation Zrotation 
				End Site
				{
					OFFSET 0.000000 -2.463878 4.653993
				}
			}
		}
	}
	JOINT rThigh
	{
		OFFSET -5.338403 -1.642589 1.368821
		CHANNELS 3 Xrotation Zrotation Yrotation 
		JOINT rShin
		{
			OFFSET 2.053232 -20.121670 0.000000
			CHANNELS 3 Xrotation Zrotation Yrotation 
			JOINT rFoot
			{
				OFFSET 0.000000 -19.300380 -1.231939
				CHANNELS 3 Xrotation Yrotation Zrotation 
				End Site
				{
					OFFSET 0.000000 -2.463878 4.653993
				}
			}
		}
	}
}
MOTION
Frames: 6
Frame Time: 0.049897
0.000000 43.528500 0.000000 0.000000 0.000000 0.000000 0.000000 0.000000 0.000000 0.000000 0.000000 0.000000 0.000000 0.000000 0.000000 0.000000 0.000000 0.000000 0.000000 0.000000 0.000000 0.000000 0.000000 0.000000 0.000000 0.000000 0.000000 0.000000 0.000000 0.000000 0.000000 0.000000 0.000000 0.000000 0.000000 0.000000 0.000000 0.000000 0.000000 0.000000 0.000000 0.000000 0.000000 0.000000 0.000000 0.000000 0.000000 0.000000 0.000000 0.000000 0.000000 0.000000 0.000000 0.000000 0.000000 0.000000 0.000000 0.000000 0.000000 0.000000 
0.000000 6.189011 0.952190 -82.000397 0.000000 0.000000 -8.528577 -0.020871 -0.021238 -6.806825 -0.149973 -0.725032 17.998348 0.000000 0.000000 8.998567 0.000000 0.000000 3.837014 -14.863377 15.186639 -59.100521 -52.218445 -12.055323 2.999032 -15.192506 34.948418 -45.614079 7.723719 -23.032572 -3.840051 14.859422 15.186844 59.092735 52.214500 -12.060863 -3.001329 15.188094 34.948444 45.611305 -7.727596 -23.033819 -13.629470 19.058418 45.478439 45.353935 1.264164 -0.462944 18.174501 -0.263672 0.886846 -13.627502 -19.062138 -45.482399 45.353977 -1.266047 0.458370 18.174477 0.259660 -0.889746 
0.000000 6.257096 0.952190 -82.000389 0.000000 0.000000 -8.195278 -0.020810 -0.021300 -7.748496 -0.149835 -0.725000 17.998350 0.000000 0.000000 9.068701 -0.006071 -0.140592 4.356906 -14.485534 15.950959 -59.653023 -52.361279 -11.623974 2.967849 -15.384003 34.939640 -45.614079 7.723719 -23.032572 -4.379022 14.462263 15.944472 59.658440 52.359428 -11.618078 -2.969219 15.385219 34.937912 45.611301 -7.727596 -23.033817 -13.527303 18.908466 45.079254 45.353931 1.264164 -0.462944 18.148695 0.006823 0.549083 -13.624156 -18.819914 -44.812710 45.353973 -1.266047 0.458370 18.169325 -0.225755 -0.361869 
0.000000 6.325182 0.952190 -82.000397 0.000000 0.000000 -7.861930 -0.020750 -0.021362 -8.691187 -0.149697 -0.724971 17.998348 0.000000 0.000000 9.138856 -0.011970 -0.281210 4.871173 -14.100657 16.711157 -60.209122 -52.501568 -11.188926 2.936603 -15.575496 34.930733 -45.614079 7.723719 -23.032572 -4.912104 14.057864 16.697617 60.227924 52.501698 -11.171438 -2.937041 15.582351 34.927258 45.611305 -7.727597 -23.033819 -13.424095 18.759153 44.680050 45.353935 1.264164 -0.462944 18.124470 0.277528 0.211360 -13.617828 -18.577599 -44.143559 45.353977 -1.266047 0.458370 18.168646 -0.711502 0.166332 
0.000000 6.393268 0.952190 -82.000397 0.000000 0.000000 -7.528544 -0.020689 -0.021423 -9.634782 -0.149558 -0.724944 17.998350 0.000000 0.000000 9.209033 -0.017698 -0.421852 5.379711 -13.708893 17.467144 -60.768822 -52.639294 -10.750211 2.905299 -15.767000 34.921722 -45.614079 7.723719 -23.032572 -5.439193 13.646366 17.446186 60.801117 52.641251 -10.720986 -2.904792 15.779486 34.916477 45.611305 -7.727597 -23.033819 -13.319857 18.610485 44.280796 45.353935 1.264164 -0.462944 18.101841 0.548425 -0.126328 -13.608512 -18.335230 -43.474945 45.353981 -1.266047 0.458370 18.172451 -1.197502 0.694893 
0.000000 6.461354 0.952190 -82.000397 0.000000 0.000000 -7.195126 -0.020627 -0.021484 -10.579140 -0.149419 -0.724919 17.998348 0.000000 0.000000 9.279238 -0.023255 -0.562519 5.882415 -13.310371 18.218821 -61.332073 -52.774426 -10.307867 2.873929 -15.958498 34.912582 -45.614075 7.723718 -23.032570 -5.960192 13.227923 18.190100 61.378029 52.778091 -10.266765 -2.872470 15.976619 34.905571 45.611305 -7.727596 -23.033819 -13.214602 18.462484 43.881546 45.353935 1.264164 -0.462944 18.080801 0.819497 -0.463986 -13.596234 -18.092873 -42.806915 45.353977 -1.266047 0.458370 18.180744 -1.683676 1.223849 
